<svg xmlns="http://www.w3.org/2000/svg" version="1.1" viewBox="83.73 157.75 601.54 261.55">
<g stroke-width="2.00" fill="none" stroke-linecap="butt">
<path stroke="#ffad80" vector-effect="non-scaling-stroke" d="   M 261.64 307.53   Q 269.04 307.23 275.13 307.65   C 286.05 308.41 291.67 316.41 294.06 326.20   Q 297.12 338.74 300.49 351.14   Q 302.43 358.28 305.46 365.50   Q 305.68 366.01 306.24 366.01   L 339.56 366.01   Q 340.19 366.01 339.97 365.43   Q 338.33 361.19 337.24 357.35   Q 332.25 339.79 327.32 321.37   C 324.54 311.02 318.64 300.68 308.58 296.24   A 0.54 0.54 0.0 0 1 308.60 295.24   C 317.69 291.65 325.48 285.02 330.04 276.39   Q 337.22 262.81 332.88 246.16   C 327.31 224.82 306.01 217.52 286.39 216.27   C 267.06 215.04 247.14 216.06 228.20 218.68   Q 227.53 218.78 227.53 219.44   L 227.52 365.40   Q 227.52 366.02 228.15 366.02   L 260.49 366.02   A 0.51 0.51 0.0 0 0 261.00 365.51   L 261.00 308.20   Q 261.00 307.56 261.64 307.53"/>
<path stroke="#ffad80" vector-effect="non-scaling-stroke" d="   M 401.75 338.21   Q 400.88 338.21 401.56 337.67   C 416.28 326.02 430.87 312.72 441.41 298.10   Q 445.43 292.52 448.32 285.91   C 456.41 267.39 454.16 244.85 438.42 231.26   C 431.13 224.97 420.95 221.21 411.69 220.26   Q 380.76 217.11 355.63 234.13   Q 355.20 234.42 355.39 234.90   L 364.53 258.19   Q 364.75 258.76 365.24 258.40   C 376.12 250.28 388.04 245.23 401.47 247.20   C 407.63 248.11 413.62 251.20 416.63 256.91   C 426.91 276.41 404.60 297.97 392.40 310.16   Q 384.87 317.69 353.99 345.14   Q 353.52 345.56 353.51 346.19   L 353.49 365.75   Q 353.49 366.00 353.75 366.00   L 455.20 366.00   A 0.46 0.45 0.0 0 0 455.66 365.55   L 455.67 338.69   Q 455.67 338.20 455.18 338.20   L 401.75 338.21"/>
<path stroke="#ffad80" vector-effect="non-scaling-stroke" d="   M 504.39 252.30   A 0.56 0.56 0.0 0 1 505.19 252.80   L 505.19 365.44   A 0.56 0.56 0.0 0 0 505.75 366.00   L 537.44 366.00   A 0.56 0.56 0.0 0 0 538.00 365.44   L 538.00 222.52   A 0.56 0.56 0.0 0 0 537.44 221.96   L 510.15 222.12   A 0.56 0.56 0.0 0 0 509.92 222.17   L 472.26 239.62   A 0.56 0.56 0.0 0 0 471.95 240.25   L 477.23 264.57   A 0.56 0.56 0.0 0 0 478.02 264.95   L 504.39 252.30"/>
<path stroke="#ffad80" vector-effect="non-scaling-stroke" d="   M 276.29 282.88   C 291.50 282.39 303.81 273.17 300.53 256.47   C 297.06 238.76 274.62 239.69 261.47 241.74   A 0.56 0.56 0.0 0 0 261.00 242.29   L 261.00 282.71   Q 261.00 282.95 261.25 282.96   Q 268.74 283.13 276.29 282.88"/>
</g>
<path fill="#ff5a00" d="   M 114.42 417.40   C 102.35 414.23 92.02 404.54 87.12 393.24   Q 86.77 392.44 86.74 391.65   Q 86.71 390.89 86.17 390.37   Q 85.78 389.99 85.76 389.44   C 85.71 387.68 84.82 386.52 84.78 384.91   C 84.72 382.59 83.75 380.57 83.75 378.32   Q 83.76 287.53 83.73 199.65   C 83.73 197.07 84.59 194.99 84.73 192.52   C 84.83 190.70 85.77 189.38 85.80 187.63   Q 85.81 187.24 86.02 186.92   Q 87.14 185.22 87.63 183.26   Q 88.00 181.84 88.93 180.59   C 90.02 179.14 90.70 177.40 91.82 175.91   Q 93.51 173.66 95.13 171.70   Q 97.17 169.23 100.54 166.87   Q 103.78 164.60 105.93 163.43   Q 110.12 161.15 115.17 159.50   Q 117.49 158.74 119.98 158.53   C 122.27 158.34 124.34 157.75 126.67 157.75   Q 384.28 157.75 641.89 157.75   Q 644.28 157.75 646.55 158.19   Q 648.98 158.67 651.31 158.78   C 652.70 158.84 653.73 159.84 655.29 159.73   Q 655.77 159.70 656.12 159.99   Q 656.52 160.32 657.00 160.48   Q 665.56 163.37 672.50 170.14   C 674.53 172.12 675.98 174.34 677.77 176.49   C 679.63 178.71 680.64 181.50 682.01 184.01   Q 682.27 184.48 682.28 185.02   Q 682.29 186.04 682.92 186.80   Q 683.29 187.24 683.24 187.81   Q 683.16 188.95 683.91 189.78   Q 684.28 190.20 684.26 190.75   C 684.17 193.36 685.27 195.58 685.27 198.21   Q 685.24 289.23 685.25 380.30   C 685.25 382.12 684.38 383.39 684.24 385.21   Q 684.17 386.18 683.87 387.24   Q 678.98 404.70 664.07 413.42   Q 658.00 416.97 651.11 418.36   Q 646.44 419.31 637.50 419.30   Q 380.61 419.19 123.84 419.27   C 121.56 419.28 119.55 418.21 117.27 418.27   C 116.11 418.29 115.49 417.69 114.42 417.40   Z   M 261.64 307.53   Q 269.04 307.23 275.13 307.65   C 286.05 308.41 291.67 316.41 294.06 326.20   Q 297.12 338.74 300.49 351.14   Q 302.43 358.28 305.46 365.50   Q 305.68 366.01 306.24 366.01   L 339.56 366.01   Q 340.19 366.01 339.97 365.43   Q 338.33 361.19 337.24 357.35   Q 332.25 339.79 327.32 321.37   C 324.54 311.02 318.64 300.68 308.58 296.24   A 0.54 0.54 0.0 0 1 308.60 295.24   C 317.69 291.65 325.48 285.02 330.04 276.39   Q 337.22 262.81 332.88 246.16   C 327.31 224.82 306.01 217.52 286.39 216.27   C 267.06 215.04 247.14 216.06 228.20 218.68   Q 227.53 218.78 227.53 219.44   L 227.52 365.40   Q 227.52 366.02 228.15 366.02   L 260.49 366.02   A 0.51 0.51 0.0 0 0 261.00 365.51   L 261.00 308.20   Q 261.00 307.56 261.64 307.53   Z   M 401.75 338.21   Q 400.88 338.21 401.56 337.67   C 416.28 326.02 430.87 312.72 441.41 298.10   Q 445.43 292.52 448.32 285.91   C 456.41 267.39 454.16 244.85 438.42 231.26   C 431.13 224.97 420.95 221.21 411.69 220.26   Q 380.76 217.11 355.63 234.13   Q 355.20 234.42 355.39 234.90   L 364.53 258.19   Q 364.75 258.76 365.24 258.40   C 376.12 250.28 388.04 245.23 401.47 247.20   C 407.63 248.11 413.62 251.20 416.63 256.91   C 426.91 276.41 404.60 297.97 392.40 310.16   Q 384.87 317.69 353.99 345.14   Q 353.52 345.56 353.51 346.19   L 353.49 365.75   Q 353.49 366.00 353.75 366.00   L 455.20 366.00   A 0.46 0.45 0.0 0 0 455.66 365.55   L 455.67 338.69   Q 455.67 338.20 455.18 338.20   L 401.75 338.21   Z   M 504.39 252.30   A 0.56 0.56 0.0 0 1 505.19 252.80   L 505.19 365.44   A 0.56 0.56 0.0 0 0 505.75 366.00   L 537.44 366.00   A 0.56 0.56 0.0 0 0 538.00 365.44   L 538.00 222.52   A 0.56 0.56 0.0 0 0 537.44 221.96   L 510.15 222.12   A 0.56 0.56 0.0 0 0 509.92 222.17   L 472.26 239.62   A 0.56 0.56 0.0 0 0 471.95 240.25   L 477.23 264.57   A 0.56 0.56 0.0 0 0 478.02 264.95   L 504.39 252.30   Z"/>
<path fill="#ffffff" d="   M 261.00 308.20   L 261.00 365.51   A 0.51 0.51 0.0 0 1 260.49 366.02   L 228.15 366.02   Q 227.52 366.02 227.52 365.40   L 227.53 219.44   Q 227.53 218.78 228.20 218.68   C 247.14 216.06 267.06 215.04 286.39 216.27   C 306.01 217.52 327.31 224.82 332.88 246.16   Q 337.22 262.81 330.04 276.39   C 325.48 285.02 317.69 291.65 308.60 295.24   A 0.54 0.54 0.0 0 0 308.58 296.24   C 318.64 300.68 324.54 311.02 327.32 321.37   Q 332.25 339.79 337.24 357.35   Q 338.33 361.19 339.97 365.43   Q 340.19 366.01 339.56 366.01   L 306.24 366.01   Q 305.68 366.01 305.46 365.50   Q 302.43 358.28 300.49 351.14   Q 297.12 338.74 294.06 326.20   C 291.67 316.41 286.05 308.41 275.13 307.65   Q 269.04 307.23 261.64 307.53   Q 261.00 307.56 261.00 308.20   Z   M 276.29 282.88   C 291.50 282.39 303.81 273.17 300.53 256.47   C 297.06 238.76 274.62 239.69 261.47 241.74   A 0.56 0.56 0.0 0 0 261.00 242.29   L 261.00 282.71   Q 261.00 282.95 261.25 282.96   Q 268.74 283.13 276.29 282.88   Z"/>
<path fill="#ffffff" d="   M 401.75 338.21   L 455.18 338.20   Q 455.67 338.20 455.67 338.69   L 455.66 365.55   A 0.46 0.45 -0.0 0 1 455.20 366.00   L 353.75 366.00   Q 353.49 366.00 353.49 365.75   L 353.51 346.19   Q 353.52 345.56 353.99 345.14   Q 384.87 317.69 392.40 310.16   C 404.60 297.97 426.91 276.41 416.63 256.91   C 413.62 251.20 407.63 248.11 401.47 247.20   C 388.04 245.23 376.12 250.28 365.24 258.40   Q 364.75 258.76 364.53 258.19   L 355.39 234.90   Q 355.20 234.42 355.63 234.13   Q 380.76 217.11 411.69 220.26   C 420.95 221.21 431.13 224.97 438.42 231.26   C 454.16 244.85 456.41 267.39 448.32 285.91   Q 445.43 292.52 441.41 298.10   C 430.87 312.72 416.28 326.02 401.56 337.67   Q 400.88 338.21 401.75 338.21   Z"/>
<path fill="#ffffff" d="   M 504.39 252.30   L 478.02 264.95   A 0.56 0.56 0.0 0 1 477.23 264.57   L 471.95 240.25   A 0.56 0.56 0.0 0 1 472.26 239.62   L 509.92 222.17   A 0.56 0.56 0.0 0 1 510.15 222.12   L 537.44 221.96   A 0.56 0.56 0.0 0 1 538.00 222.52   L 538.00 365.44   A 0.56 0.56 0.0 0 1 537.44 366.00   L 505.75 366.00   A 0.56 0.56 0.0 0 1 505.19 365.44   L 505.19 252.80   A 0.56 0.56 0.0 0 0 504.39 252.30   Z"/>
<path fill="#ff5a00" d="   M 300.53 256.47   C 303.81 273.17 291.50 282.39 276.29 282.88   Q 268.74 283.13 261.25 282.96   Q 261.00 282.95 261.00 282.71   L 261.00 242.29   A 0.56 0.56 0.0 0 1 261.47 241.74   C 274.62 239.69 297.06 238.76 300.53 256.47   Z"/>
</svg>